<?xml version="1.0" encoding="utf-8"?>
<!-- Generator: Adobe Illustrator 26.2.0, SVG Export Plug-In . SVG Version: 6.00 Build 0)  -->
<svg version="1.1" id="Layer_1" xmlns="http://www.w3.org/2000/svg" xmlns:xlink="http://www.w3.org/1999/xlink" x="0px" y="0px"
	 viewBox="0 0 453.8 505.9" style="enable-background:new 0 0 453.8 505.9;" xml:space="preserve">
<style type="text/css">
	.st0{fill:#FFFFFF;}
</style>
<g>
	<path class="st0" d="M234,130.5l-18.5,75.7c-1.5,6,5.1,10.8,10.4,7.6l26.5-16.1c2.2-1.3,4.9-1.4,7.1-0.1l48,27.1
		c2.2,1.2,3.6,3.6,3.5,6.1l-0.2,31c0,6.1,7.5,9.2,11.9,4.8l55.3-54.8c2.1-2,2.6-5.1,1.5-7.8l-13.8-31.2c-0.9-2-0.8-4.3,0.3-6.2
		l21.8-38.5C425.3,61.7,402.8,0,402.8,0s-64.5,12.5-102.1,78.9l-21.8,38.5c-1.1,1.9-3,3.2-5.2,3.5l-33.8,4.3
		C237,125.6,234.7,127.7,234,130.5z"/>
	<path class="st0" d="M446.7,284.6L386.3,180l7.8,17.6c3.8,8.7,1.9,18.9-4.8,25.6l-10.1,10l39.1,67.8c1.5,2.6,1.5,5.9,0,8.5
		L363,405.3c-9.5-4.6-20.1-7.2-31.3-7.2c-10.3,0-20.1,2.2-29,6.2c-20.5-47.7-67.9-81-123.1-81c-24.4,0-47.2,6.5-66.9,17.9
		c-9.2-12.6-24.1-20.8-41-20.8c-9.4,0-18.3,2.6-25.8,7.1l-10.3-17.8c-1.5-2.6-1.5-5.9,0-8.5l92-159.4c1.5-2.6,4.3-4.2,7.3-4.2h81
		l2.6-10.7c2.2-9.2,10.1-16.2,19.4-17.3l29.3-3.7l0.6-1h-133c-14.7,0-28.4,7.9-35.8,20.6L7,284.9c-7.4,12.7-7.4,28.6,0,41.3
		l92,159.4c7.4,12.7,21.1,20.6,35.8,20.6h184.1c14.7,0,28.4-7.9,35.8-20.6l92-159.4C454.1,313.2,454.1,297.3,446.7,284.6z
		 M157,451.1c-2.2,3.9-7.2,5.3-11.1,3.1c-3.9-2.2-5.3-7.2-3.2-11.2l53.6-102.7c8.4,1.2,16.6,3.4,24.5,6.3L157,451.1z"/>
	<path class="st0" d="M254.7,228.7l-42.8,82.1c8.9,1.9,17.6,4.7,25.9,8.2l45.4-74.2c4.4-7.9,1.7-17.8-6.2-22.3
		S259.2,220.8,254.7,228.7z"/>
</g>
</svg>
